<mxfile host="app.diagrams.net" modified="2021-08-31T11:53:17.190Z" agent="5.0 (Windows)" etag="xo6PTFU1czE7CvX1Yr_L" version="14.1.2" type="github">
  <diagram id="wWmaAe6ElsWB-zUafKZV" name="Page-1">
    <mxGraphModel dx="865" dy="478" grid="1" gridSize="10" guides="1" tooltips="1" connect="1" arrows="1" fold="1" page="1" pageScale="1" pageWidth="827" pageHeight="1169" math="0" shadow="0">
      <root>
        <mxCell id="0" />
        <mxCell id="1" parent="0" />
        <mxCell id="KUawCyeF-_NzYs4Vc8_j-3" value="" style="group" vertex="1" connectable="0" parent="1">
          <mxGeometry x="60" y="250" width="135" height="120" as="geometry" />
        </mxCell>
        <mxCell id="KUawCyeF-_NzYs4Vc8_j-2" value="Relationship" style="shape=rhombus;perimeter=rhombusPerimeter;whiteSpace=wrap;html=1;align=center;" vertex="1" parent="KUawCyeF-_NzYs4Vc8_j-3">
          <mxGeometry width="135" height="120" as="geometry" />
        </mxCell>
        <mxCell id="KUawCyeF-_NzYs4Vc8_j-1" value="Submits" style="shape=rhombus;perimeter=rhombusPerimeter;whiteSpace=wrap;html=1;align=center;" vertex="1" parent="KUawCyeF-_NzYs4Vc8_j-3">
          <mxGeometry x="7.5" y="5" width="120" height="110" as="geometry" />
        </mxCell>
        <mxCell id="KUawCyeF-_NzYs4Vc8_j-6" value="Author" style="whiteSpace=wrap;html=1;align=center;" vertex="1" parent="1">
          <mxGeometry x="77.5" y="120" width="100" height="40" as="geometry" />
        </mxCell>
        <mxCell id="KUawCyeF-_NzYs4Vc8_j-7" value="EmailAddr" style="ellipse;whiteSpace=wrap;html=1;align=center;" vertex="1" parent="1">
          <mxGeometry x="20" y="20" width="100" height="40" as="geometry" />
        </mxCell>
        <mxCell id="KUawCyeF-_NzYs4Vc8_j-8" value="FirstName" style="ellipse;whiteSpace=wrap;html=1;align=center;" vertex="1" parent="1">
          <mxGeometry x="140" y="20" width="100" height="40" as="geometry" />
        </mxCell>
        <mxCell id="KUawCyeF-_NzYs4Vc8_j-9" value="LastName" style="ellipse;whiteSpace=wrap;html=1;align=center;" vertex="1" parent="1">
          <mxGeometry x="260" y="20" width="100" height="40" as="geometry" />
        </mxCell>
      </root>
    </mxGraphModel>
  </diagram>
</mxfile>
